<?xml version="1.0" encoding="utf-8"?>
<!-- Generator: Adobe Illustrator 24.1.1, SVG Export Plug-In . SVG Version: 6.00 Build 0)  -->
<svg version="1.1" id="Layer_1" xmlns="http://www.w3.org/2000/svg" xmlns:xlink="http://www.w3.org/1999/xlink" x="0px" y="0px"
	 viewBox="0 0 533 309" style="enable-background:new 0 0 533 309;" xml:space="preserve">
<style type="text/css">
	.st0{fill:#FFFFFF;}
	.st1{fill:#231F20;}
	.st2{fill:#E12E29;}
	.st3{fill:#FDF0ED;}
	.st4{fill:#E13E30;}
	.st5{fill-rule:evenodd;clip-rule:evenodd;fill:#231F20;}
	.st6{fill-rule:evenodd;clip-rule:evenodd;fill:#EB2227;}
</style>
<g>
	<path class="st0" d="M7.4,89.6V23.8h11.7v65.8H7.4z"/>
	<path class="st0" d="M80,88.2c-4.3,1.8-9,2.7-14.1,2.7c-4.9,0-9.6-0.9-14-2.7c-4.4-1.8-8.2-4.2-11.4-7.3c-3.2-3.1-5.8-6.7-7.7-10.9
		c-1.9-4.2-2.8-8.6-2.8-13.4s0.9-9.2,2.8-13.4c1.9-4.2,4.4-7.8,7.7-11c3.2-3.1,7-5.6,11.4-7.4c4.4-1.8,9-2.7,14-2.7
		c5.1,0,9.8,0.9,14.1,2.7c4.3,1.8,8.1,4.3,11.4,7.4l-8.1,7.8c-2.2-2.2-4.8-3.9-7.8-5.3c-3-1.3-6.2-2-9.6-2c-3.3,0-6.4,0.6-9.3,1.9
		c-2.9,1.3-5.4,3-7.6,5.1c-2.2,2.1-3.9,4.7-5.2,7.6c-1.3,2.9-1.9,6-1.9,9.2c0,3.2,0.6,6.2,1.9,9.1c1.3,2.9,3,5.4,5.2,7.5
		c2.2,2.1,4.7,3.8,7.6,5.1c2.9,1.3,6,1.9,9.3,1.9c3.4,0,6.7-0.7,9.7-2c3-1.3,5.6-3.1,7.8-5.3l8.1,7.8C88.1,83.9,84.3,86.4,80,88.2z"
		/>
	<path class="st0" d="M145.5,89.6l-5.8-11.5h-30.2l-5.8,11.5H90.9l33.6-67.2h0.3l33.6,67.2H145.5z M124.8,47.7h-0.3l-9.9,19.7
		l0.2,0.3h19.6l0.2-0.3L124.8,47.7z"/>
	<path class="st0" d="M206.9,71.4c0,2.7-0.5,5.2-1.6,7.6c-1.1,2.3-2.5,4.4-4.4,6.1c-1.9,1.8-4,3.1-6.4,4.2c-2.4,1-5,1.5-7.8,1.5
		c-3.7,0-7.1-0.8-10.2-2.3c-3.1-1.5-5.8-3.2-8-5.1c-2.7-2.2-5-4.6-7.1-7.3l9.7-5.8c1.3,1.8,2.8,3.3,4.4,4.7c1.4,1.1,3,2.2,4.8,3.1
		c1.9,1,3.9,1.4,6.1,1.4c2.4,0,4.4-0.8,6.1-2.4c1.7-1.6,2.5-3.6,2.5-5.9c0-1.5-0.4-2.8-1.1-3.9c-0.7-1.2-1.7-2.1-2.8-2.8l-16-8.8
		c-2.7-1.5-4.9-3.7-6.5-6.4c-1.7-2.8-2.5-5.8-2.5-9.1c0-2.5,0.5-4.9,1.4-7c1-2.2,2.3-4.1,4-5.8c1.7-1.7,3.7-2.9,6-3.9
		c2.3-0.9,4.7-1.4,7.3-1.4c3.6,0,6.8,0.9,9.8,2.6c3,1.8,5.2,4.1,6.8,6.9L191,37.1c-0.6-1.1-1.3-1.9-2.4-2.6c-1-0.7-2.2-1-3.6-1
		c-2,0-3.7,0.6-5,1.9c-1.4,1.3-2.1,2.9-2.1,4.8c0,1.3,0.3,2.4,1,3.4c0.7,1,1.5,1.8,2.4,2.3l16.6,9.3c2.9,1.6,5.1,3.8,6.6,6.7
		C206.1,64.9,206.9,68.1,206.9,71.4z"/>
	<path class="st0" d="M258.3,71.4c0,2.7-0.5,5.2-1.6,7.6c-1.1,2.3-2.5,4.4-4.4,6.1c-1.9,1.8-4,3.1-6.4,4.2c-2.4,1-5,1.5-7.8,1.5
		c-3.7,0-7.1-0.8-10.2-2.3c-3.1-1.5-5.8-3.2-8-5.1c-2.7-2.2-5-4.6-7.1-7.3l9.7-5.8c1.3,1.8,2.8,3.3,4.4,4.7c1.4,1.1,3,2.2,4.8,3.1
		c1.9,1,3.9,1.4,6.1,1.4c2.4,0,4.4-0.8,6.1-2.4c1.7-1.6,2.5-3.6,2.5-5.9c0-1.5-0.4-2.8-1.1-3.9c-0.7-1.2-1.7-2.1-2.8-2.8l-16-8.8
		c-2.7-1.5-4.9-3.7-6.5-6.4c-1.7-2.8-2.5-5.8-2.5-9.1c0-2.5,0.5-4.9,1.4-7c1-2.2,2.3-4.1,4-5.8c1.7-1.7,3.7-2.9,6-3.9
		c2.3-0.9,4.7-1.4,7.3-1.4c3.6,0,6.8,0.9,9.8,2.6c3,1.8,5.2,4.1,6.8,6.9l-10.4,5.5c-0.6-1.1-1.3-1.9-2.4-2.6c-1-0.7-2.2-1-3.6-1
		c-2,0-3.7,0.6-5,1.9c-1.4,1.3-2.1,2.9-2.1,4.8c0,1.3,0.3,2.4,1,3.4c0.7,1,1.5,1.8,2.4,2.3l16.6,9.3c2.9,1.6,5.1,3.8,6.6,6.7
		C257.5,64.9,258.3,68.1,258.3,71.4z"/>
	<path class="st0" d="M312.6,48.8c0,3.5-0.7,6.8-2.1,9.8c-1.4,3-3.2,5.7-5.6,7.9c-2.4,2.3-5.2,4.1-8.3,5.4
		c-3.2,1.3-6.6,1.9-10.1,1.9h-5.8v15.8h-11.7V23.8h17.5c3.6,0,7,0.7,10.1,2c3.2,1.3,6,3.1,8.3,5.4c2.4,2.2,4.2,4.9,5.6,7.9
		C311.9,42.2,312.6,45.4,312.6,48.8z M300.8,48.7c0-1.9-0.4-3.7-1.1-5.5c-0.8-1.7-1.8-3.2-3-4.5c-1.3-1.3-2.8-2.3-4.5-3.1
		c-1.8-0.8-3.6-1.1-5.6-1.1h-5.8v28.6h5.8c2,0,3.9-0.4,5.6-1.1c1.8-0.8,3.3-1.8,4.5-3.1c1.3-1.3,2.3-2.8,3-4.6
		C300.4,52.6,300.8,50.7,300.8,48.7z"/>
</g>
<g>
	<path d="M321.5,91.6v-0.3l34.9-42.5c0.8-1,1.4-2.2,1.8-3.4c0.4-1.3,0.6-2.6,0.6-4c0-1.7-0.3-3.3-0.9-4.8c-0.6-1.5-1.4-2.8-2.4-3.9
		c-1-1.1-2.2-2-3.5-2.6c-1.4-0.7-2.8-1-4.4-1c-1.6,0-3,0.3-4.4,1c-1.4,0.7-2.6,1.5-3.6,2.6c-1,1.1-1.8,2.4-2.4,3.9
		c-0.6,1.5-0.9,3.1-0.9,4.8v1.2h-12.4v-1.2c0-3.4,0.6-6.5,1.8-9.4c1.2-2.9,2.9-5.5,5.1-7.7c2.1-2.2,4.7-3.9,7.5-5.1
		c2.9-1.2,5.9-1.9,9.2-1.9c3.2,0,6.3,0.6,9.1,1.9c2.9,1.2,5.4,3,7.5,5.1c2.1,2.2,3.8,4.7,5.1,7.7c1.3,2.9,1.9,6,1.9,9.4
		c0,2.8-0.4,5.5-1.3,8.1c-0.9,2.6-2.1,4.8-3.9,6.9l-19.1,23.2v0.3H373v11.8H321.5z"/>
	<path d="M434.4,55.2c0,5.2-0.7,10.2-2.1,14.8c-1.4,4.6-3.3,8.6-5.8,12c-2.4,3.4-5.3,6.1-8.5,8.1c-3.2,2-6.7,3-10.4,3
		c-3.7,0-7.2-1-10.5-3c-3.3-2-6.1-4.7-8.5-8.1c-2.4-3.4-4.4-7.4-5.8-12c-1.4-4.6-2.1-9.5-2.1-14.8c0-5.2,0.7-10.2,2.1-14.8
		c1.4-4.6,3.3-8.6,5.8-12.1c2.4-3.5,5.3-6.2,8.5-8.1c3.3-2,6.8-3,10.5-3c3.7,0,7.2,1,10.4,3c3.2,2,6.1,4.7,8.5,8.1
		c2.4,3.5,4.4,7.5,5.8,12.1C433.7,45.1,434.4,50,434.4,55.2z M422,55.1c0-3.6-0.4-6.9-1.1-10.1c-0.8-3.2-1.8-5.9-3.1-8.3
		c-1.3-2.3-2.9-4.2-4.6-5.6c-1.8-1.4-3.6-2.1-5.5-2.1c-2,0-3.9,0.7-5.6,2.1c-1.8,1.4-3.3,3.2-4.6,5.6c-1.3,2.3-2.4,5.1-3.1,8.3
		c-0.8,3.2-1.1,6.5-1.1,10.1c0,3.6,0.4,6.9,1.1,10.1s1.8,5.9,3.1,8.3c1.3,2.4,2.9,4.2,4.6,5.6c1.8,1.4,3.6,2.1,5.6,2.1
		c1.9,0,3.8-0.7,5.5-2.1c1.8-1.4,3.3-3.3,4.6-5.6c1.3-2.4,2.4-5.1,3.1-8.3S422,58.7,422,55.1z"/>
	<path d="M440.8,91.6v-0.3l34.9-42.5c0.8-1,1.4-2.2,1.8-3.4c0.4-1.3,0.6-2.6,0.6-4c0-1.7-0.3-3.3-0.9-4.8c-0.6-1.5-1.4-2.8-2.4-3.9
		c-1-1.1-2.2-2-3.5-2.6c-1.4-0.7-2.8-1-4.4-1c-1.6,0-3,0.3-4.4,1c-1.4,0.7-2.6,1.5-3.6,2.6c-1,1.1-1.8,2.4-2.4,3.9
		c-0.6,1.5-0.9,3.1-0.9,4.8v1.2h-12.4v-1.2c0-3.4,0.6-6.5,1.8-9.4c1.2-2.9,2.9-5.5,5.1-7.7c2.1-2.2,4.7-3.9,7.5-5.1
		c2.9-1.2,5.9-1.9,9.2-1.9c3.2,0,6.3,0.6,9.1,1.9c2.9,1.2,5.4,3,7.5,5.1c2.1,2.2,3.8,4.7,5.1,7.7c1.3,2.9,1.9,6,1.9,9.4
		c0,2.8-0.4,5.5-1.3,8.1c-0.9,2.6-2.1,4.8-3.9,6.9l-19.1,23.2v0.3h26.1v11.8H440.8z"/>
	<path d="M508.8,91.6V31h-10.3v-0.3l6.7-11.5h15.9v72.5H508.8z"/>
</g>
<g>
	<path class="st1" d="M47.6,129.5v58.7h-8.7v-58.7H17.5V122H69v7.4H47.6z"/>
	<path class="st1" d="M145.9,155.3c0,4.8-0.9,9.2-2.8,13.4c-1.9,4.2-4.5,7.9-7.8,11c-3.3,3.1-7.1,5.6-11.5,7.4
		c-4.4,1.8-9.1,2.7-14.1,2.7c-5,0-9.7-0.9-14.2-2.7c-4.4-1.8-8.3-4.3-11.6-7.4c-3.3-3.1-5.9-6.8-7.8-11c-1.9-4.2-2.8-8.7-2.8-13.4
		c0-4.8,0.9-9.4,2.8-13.6c1.9-4.2,4.5-7.9,7.8-11.1c3.3-3.1,7.2-5.6,11.6-7.4c4.4-1.8,9.2-2.7,14.2-2.7c5,0,9.7,0.9,14.1,2.7
		c4.4,1.8,8.2,4.3,11.5,7.4c3.3,3.1,5.9,6.8,7.8,11.1C144.9,145.9,145.9,150.4,145.9,155.3z M137,155.2c0-3.8-0.7-7.4-2.2-10.7
		c-1.4-3.3-3.4-6.1-5.9-8.6c-2.5-2.4-5.4-4.4-8.7-5.8c-3.3-1.4-6.9-2.1-10.8-2.1c-3.8,0-7.4,0.7-10.8,2.1c-3.3,1.4-6.2,3.3-8.7,5.8
		c-2.5,2.4-4.4,5.3-5.8,8.6c-1.4,3.3-2.1,6.8-2.1,10.7c0,3.8,0.7,7.3,2.1,10.6c1.4,3.3,3.3,6.2,5.8,8.6c2.5,2.4,5.4,4.3,8.7,5.7
		c3.3,1.4,6.9,2.1,10.8,2.1c3.8,0,7.4-0.7,10.8-2.1c3.3-1.4,6.2-3.3,8.7-5.7c2.5-2.4,4.4-5.3,5.9-8.6
		C136.3,162.5,137,158.9,137,155.2z"/>
	<path class="st1" d="M170.9,122c3.6,0,7.1,0.7,10.3,2c3.2,1.3,6,3.1,8.4,5.4c2.4,2.3,4.3,5,5.7,8c1.4,3.1,2.1,6.3,2.1,9.8
		c0,4.6-1.1,8.7-3.4,12.4c-2.3,3.7-5.3,6.7-9.1,8.9l16,15.4l-6.1,5.9l-18-17.5h-10.9v15.9h-8.6V122H170.9z M171,165.1
		c2.5,0,4.8-0.5,7-1.4c2.2-0.9,4.1-2.2,5.7-3.8c1.6-1.6,2.9-3.5,3.8-5.6c0.9-2.1,1.4-4.4,1.4-6.9c0-2.4-0.5-4.8-1.4-6.9
		c-0.9-2.2-2.2-4.1-3.8-5.7c-1.6-1.6-3.5-2.9-5.7-3.8c-2.2-0.9-4.5-1.4-7-1.4c-0.9,0-1.8,0.1-2.6,0.2c-0.9,0.1-1.7,0.3-2.5,0.5v34
		C167.6,164.8,169.3,165.1,171,165.1z"/>
	<path class="st1" d="M279.7,155.3c0,4.8-0.9,9.2-2.8,13.4c-1.9,4.2-4.5,7.9-7.8,11c-3.3,3.1-7.1,5.6-11.5,7.4
		c-4.4,1.8-9.1,2.7-14.1,2.7c-5,0-9.7-0.9-14.2-2.7c-4.4-1.8-8.3-4.3-11.6-7.4c-3.3-3.1-5.9-6.8-7.8-11c-1.9-4.2-2.8-8.7-2.8-13.4
		c0-4.8,0.9-9.4,2.8-13.6c1.9-4.2,4.5-7.9,7.8-11.1c3.3-3.1,7.2-5.6,11.6-7.4c4.4-1.8,9.2-2.7,14.2-2.7c5,0,9.7,0.9,14.1,2.7
		c4.4,1.8,8.2,4.3,11.5,7.4c3.3,3.1,5.9,6.8,7.8,11.1C278.8,145.9,279.7,150.4,279.7,155.3z M270.8,155.2c0-3.8-0.7-7.4-2.2-10.7
		c-1.4-3.3-3.4-6.1-5.9-8.6c-2.5-2.4-5.4-4.4-8.7-5.8c-3.3-1.4-6.9-2.1-10.8-2.1c-3.8,0-7.4,0.7-10.8,2.1c-3.3,1.4-6.2,3.3-8.7,5.8
		c-2.5,2.4-4.4,5.3-5.8,8.6c-1.4,3.3-2.1,6.8-2.1,10.7c0,3.8,0.7,7.3,2.1,10.6c1.4,3.3,3.3,6.2,5.8,8.6c2.5,2.4,5.4,4.3,8.7,5.7
		c3.3,1.4,6.9,2.1,10.8,2.1c3.8,0,7.4-0.7,10.8-2.1c3.3-1.4,6.2-3.3,8.7-5.7c2.5-2.4,4.4-5.3,5.9-8.6
		C270.1,162.5,270.8,158.9,270.8,155.2z"/>
	<path class="st1" d="M300,141.7h-0.3v46.5h-8.6v-67.6h0.3l47,48h0.3V122h8.6v67.6H347L300,141.7z"/>
	<path class="st1" d="M385.4,129.5v58.7h-8.7v-58.7h-21.4V122h51.5v7.4H385.4z"/>
	<path class="st1" d="M483.7,155.3c0,4.8-0.9,9.2-2.8,13.4c-1.9,4.2-4.5,7.9-7.8,11c-3.3,3.1-7.1,5.6-11.5,7.4
		c-4.4,1.8-9.1,2.7-14.1,2.7c-5,0-9.7-0.9-14.2-2.7s-8.3-4.3-11.6-7.4c-3.3-3.1-5.9-6.8-7.8-11c-1.9-4.2-2.8-8.7-2.8-13.4
		c0-4.8,0.9-9.4,2.8-13.6c1.9-4.2,4.5-7.9,7.8-11.1c3.3-3.1,7.2-5.6,11.6-7.4c4.4-1.8,9.2-2.7,14.2-2.7c5,0,9.7,0.9,14.1,2.7
		c4.4,1.8,8.2,4.3,11.5,7.4c3.3,3.1,5.9,6.8,7.8,11.1C482.8,145.9,483.7,150.4,483.7,155.3z M474.8,155.2c0-3.8-0.7-7.4-2.2-10.7
		c-1.4-3.3-3.4-6.1-5.9-8.6c-2.5-2.4-5.4-4.4-8.7-5.8c-3.3-1.4-6.9-2.1-10.8-2.1c-3.8,0-7.4,0.7-10.8,2.1c-3.3,1.4-6.2,3.3-8.7,5.8
		c-2.5,2.4-4.4,5.3-5.8,8.6c-1.4,3.3-2.1,6.8-2.1,10.7c0,3.8,0.7,7.3,2.1,10.6c1.4,3.3,3.3,6.2,5.8,8.6c2.5,2.4,5.4,4.3,8.7,5.7
		c3.3,1.4,6.9,2.1,10.8,2.1c3.8,0,7.4-0.7,10.8-2.1c3.3-1.4,6.2-3.3,8.7-5.7c2.5-2.4,4.4-5.3,5.9-8.6
		C474.1,162.5,474.8,158.9,474.8,155.2z"/>
</g>
<path class="st2" d="M476.5,206.7c-0.4,0.5-0.7,1.3-1.1,1.4c-4.3,0.4-8.6,2.4-12.9,0.4c-0.3-0.1-0.7-0.3-0.9-0.2
	c-2.8,2.1-6.2,0.6-9.1,1.6c-0.9,0-1.7,0-2.6,0c-1.8-1.3-3.5-0.4-5.1,0.5c-0.3,0.4-0.5,0.8-0.8,1.2c-5.9-0.6-11.4,0.9-17,2.5
	c-4,1.1-8.3,1.2-12.4,1.9c-7.2,1.3-14.4,2.8-21.6,4.2c-7.2,1.4-14.5,2.7-21.7,4.2c-9,1.8-17.9,4.2-26.4,7.7
	c-4.7,1.9-9.6,2.1-14.6,1.1c-3.4-0.6-7-0.3-9.4,1.6c-3.3,2.7-7.1,2.8-10.7,3.9c-0.1,0-0.2,0.3-0.3,0.5c-2.7,0-5.5,0-8.2,0
	c-1.7-1.7-3.4-3.3-5.1-5c0-0.8,0-1.7,0-2.5c2.3-3.9,6.5-5.1,10.3-6.9c6.8-3.1,14-4.6,21.4-5.9c7.6-1.2,15.1-3.4,22.6-5.5
	c10-2.9,20.4-4,30.7-5.5c8.9-1.3,17.9-2.6,26.9-3.5c8.8-0.9,17.6-1.2,26.5-1.7c1.2-0.1,2.5,0.5,4.2,0.9c0.2-0.1,0.9-0.8,1.5-0.8
	c3,0,6.1,0.3,9.1,0.4c1.7,0.1,3.4,0,5,0.2c4.8,0.4,9.6,0.6,14.4,1.2C471.6,205.1,474.1,206.1,476.5,206.7L476.5,206.7"/>
<path class="st2" d="M520.8,210.5c-1.1,0.4-2.4,0.6-3.2,1.3c-3.5,2.9-7.6,4.2-12.1,4.3c-4.7,0.1-9.3-1-13.1-4
	c-2.2-1.8-2.8-4.2-2-6.9c0.5-1.8,0.7-3.6,1.3-5.4c1.1-3.8,5.1-7,8.9-6.1c4.4,1,9.4,1.6,12.7,5.1c1.5,1.5,2.1,3.9,3.3,6.5
	c0.9,0.3,2.6,0.9,4.2,1.5C520.8,208,520.8,209.3,520.8,210.5"/>
<path class="st3" d="M449.9,209.9c0.9,0,1.7,0,2.6,0c-0.4,2.8-2,1.3-3.4,1C449.3,210.5,449.6,210.2,449.9,209.9"/>
<path class="st4" d="M476.5,206.7c0.5-0.2,1-0.5,1.5-0.7c0,0.2,0.1,0.4,0.1,0.6C477.6,206.7,477,206.7,476.5,206.7L476.5,206.7"/>
<path class="st3" d="M444,211.7c0.3-0.4,0.5-0.8,0.8-1.2C444.5,210.9,444.2,211.3,444,211.7"/>
<path class="st5" d="M74.3,206.3l0.5,18.3h-0.9c-0.2-0.5-0.4-1.1-0.7-1.8c-1.4-4-2.6-6.7-3.6-8.2c-3.6-5.4-8.1-8.2-13.5-8.2
	c-5.9,0-10.8,2.9-14.6,8.6c-3.6,5.4-5.4,11.9-5.4,19.3c0,7.8,1.7,14,5,18.7c3.8,5.3,9.1,8,16.1,8c3.4,0,6.3-0.6,8.8-1.8
	c2.5-1.2,4.5-3,5.8-5.3c1.2-2.1,2.2-4.8,2.8-8l0.9,0.2c-0.7,5.9-2.9,10.3-6.4,13.3c-3.5,2.9-8.5,4.4-14.9,4.4
	c-8.9,0-15.9-2.7-21-8.1c-4.8-5.1-7.2-11.8-7.2-20.1c0-4.5,0.7-8.6,2.2-12.6c1.5-3.9,3.5-7.2,6.2-9.8c2.7-2.6,6.1-4.6,10.2-6.1
	c3.6-1.3,7.3-1.9,10.9-1.9c2.7,0,5.5,0.4,8.4,1.2c0.7,0.2,2.5,0.8,5.3,1.7c0.7,0.2,1.2,0.3,1.8,0.3c1,0,1.7-0.7,2.3-2.1H74.3"/>
<path class="st5" d="M114.1,258.3l0.7,0.4c-1,2.8-3.2,4.2-6.8,4.2c-2.2,0-4-0.6-5.3-1.7c-0.7-0.6-1.5-1.6-2.2-2.9
	c-1.5,1.3-2.7,2.2-3.4,2.8c-1.9,1.2-4.2,1.9-6.9,1.9c-2.8,0-5.2-0.7-7-2c-1.9-1.4-2.8-3.4-2.8-5.9c0-2.5,0.9-4.5,2.7-6.1
	c1.4-1.2,3.8-2.3,7-3.1c3.6-0.9,6.1-1.8,7.6-2.6c1.2-0.6,1.9-1.5,2.3-2.4c0.4-0.8,0.5-2,0.5-3.5c0-2.8-0.5-5-1.4-6.5
	c-1.1-1.8-2.9-2.7-5.2-2.7c-1.5,0-2.7,0.5-3.7,1.4c-0.5,0.5-1.3,1.8-2.3,4c-0.5,1.2-1.5,1.9-3,1.9c-1.1,0-1.9-0.4-2.5-1.2
	c-0.5-0.6-0.7-1.3-0.7-2c0-1.2,0.7-2.2,2-3c2.4-1.4,5.6-2.1,9.5-2.1c2.4,0,4.7,0.4,7.1,1.1c2.8,0.9,4.6,2.1,5.5,3.6
	c0.6,1.1,0.9,2.9,0.9,5.5v15.1c0,2.5,0.1,4.2,0.3,5.1c0.5,1.9,1.6,2.8,3.4,2.8c1.2,0,2.1-0.3,2.9-1.1
	C113.5,259.1,113.7,258.8,114.1,258.3 M100.5,242.2c-1.4,1.2-3,2.2-4.8,3.2c-2.2,1.2-3.6,2-4.2,2.5c-2.5,1.9-3.8,4.4-3.8,7.3
	c0,1.8,0.5,3.2,1.4,4.3c1,1.3,2.3,1.9,3.8,1.9c1.9,0,3.5-0.7,4.9-2.2c1.9-1.9,2.8-5.3,2.8-10.2V242.2z"/>
<path class="st5" d="M126.5,226.9c0.4,1.6,0.5,3.2,0.5,5.1c3.4-3.2,7.4-4.9,12.1-4.9c3.1,0,5.6,0.6,7.7,1.9c2.6,1.6,3.8,4,3.8,7.3
	v14.3c0,3.2,0.1,5.2,0.1,6c0.2,2,1.1,3.4,2.7,4.1c0.8,0.3,1.8,0.6,3,0.8v0.8h-18.2v-0.8c1.6-0.2,2.8-0.5,3.4-0.9
	c1.4-0.9,2.3-2.6,2.5-5.1c0.1-0.6,0.1-2.3,0.2-5.3v-8.7c0-4.5-0.4-7.6-1.1-9.1c-0.5-1.1-1.4-2-2.7-2.7c-1.2-0.7-2.7-1-4.2-1
	c-1.7,0-3.3,0.4-4.7,1.1c-1.4,0.7-2.5,1.7-3.1,3c-0.8,1.4-1.3,3-1.4,4.9c-0.1,1.3-0.1,2.8-0.1,4.8v8c0,3.1,0.1,5.1,0.1,6
	c0.2,2,1.1,3.4,2.8,4.1c0.7,0.3,1.7,0.6,2.9,0.8v0.8h-18.2v-0.8c1.6-0.2,2.8-0.5,3.4-0.9c1.4-0.9,2.3-2.6,2.5-5.1
	c0.1-0.6,0.1-2.4,0.2-5.3v-10.1c0-3.3-0.1-5.2-0.2-5.9c-0.4-3.3-2.2-5-5.4-5.1v-0.8L126.5,226.9"/>
<path class="st5" d="M193.4,258.3l0.7,0.4c-1,2.8-3.2,4.2-6.8,4.2c-2.2,0-4-0.6-5.3-1.7c-0.7-0.6-1.5-1.6-2.2-2.9
	c-1.5,1.3-2.7,2.2-3.4,2.8c-1.9,1.2-4.2,1.9-6.9,1.9c-2.8,0-5.2-0.7-7-2c-1.9-1.4-2.8-3.4-2.8-5.9c0-2.5,0.9-4.5,2.7-6.1
	c1.4-1.2,3.8-2.3,7-3.1c3.6-0.9,6.1-1.8,7.6-2.6c1.2-0.6,1.9-1.5,2.3-2.4c0.4-0.8,0.5-2,0.5-3.5c0-2.8-0.5-5-1.4-6.5
	c-1.1-1.8-2.9-2.7-5.2-2.7c-1.5,0-2.7,0.5-3.7,1.4c-0.5,0.5-1.3,1.8-2.3,4c-0.5,1.2-1.5,1.9-3,1.9c-1.1,0-1.9-0.4-2.5-1.2
	c-0.5-0.6-0.7-1.3-0.7-2c0-1.2,0.7-2.2,2-3c2.4-1.4,5.6-2.1,9.5-2.1c2.3,0,4.7,0.4,7.1,1.1c2.8,0.9,4.6,2.1,5.5,3.6
	c0.6,1.1,0.9,2.9,0.9,5.5v15.1c0,2.5,0.1,4.2,0.3,5.1c0.5,1.9,1.6,2.8,3.4,2.8c1.2,0,2.1-0.3,2.9-1.1
	C192.8,259.1,193,258.8,193.4,258.3 M179.8,242.2c-1.4,1.2-3,2.2-4.8,3.2c-2.2,1.2-3.6,2-4.2,2.5c-2.5,1.9-3.8,4.4-3.8,7.3
	c0,1.8,0.5,3.2,1.4,4.3c1,1.3,2.3,1.9,3.8,1.9c1.9,0,3.5-0.7,4.9-2.2c1.9-1.9,2.8-5.3,2.8-10.2V242.2z"/>
<path class="st5" d="M223.8,263.6c-0.3-1.4-0.4-2.8-0.4-4.2c-3.8,2.4-7.6,3.6-11.4,3.6c-4.7,0-8.5-1.5-11.5-4.6
	c-3.3-3.3-4.9-7.5-4.9-12.9c0-5.6,1.7-10.2,5.2-13.7c3.2-3.2,7.2-4.8,12.1-4.8c2.9,0,5.4,0.7,7.6,2c0.7,0.4,1.7,1.1,2.8,2v-15
	c0-3.6-0.8-6.1-2.4-7.4c-0.9-0.7-2.2-1-4-1v-1l12.6-1.6v47.3c0,2.5,0.3,4.2,0.8,5.3c0.7,1.7,1.8,2.7,3.4,3.1
	c0.6,0.1,1.3,0.2,2.2,0.2v1L223.8,263.6 M214.2,228.1c-3.1,0-5.7,1.6-7.9,4.9c-2.3,3.4-3.4,7.4-3.4,12c0,4.4,1,8.3,3.1,11.7
	c2.1,3.4,4.8,5,8,5c1.6,0,3.1-0.4,4.5-1.3c1.4-0.9,2.4-2.1,3.1-3.6c0.8-1.6,1.3-3.4,1.4-5.3c0.2-2,0.3-4.1,0.3-6.6
	c0-4.5-0.2-7.5-0.5-9.2c-0.6-2.8-1.8-4.8-3.6-6.1C217.7,228.6,216,228.1,214.2,228.1z"/>
<path class="st5" d="M273,258.3l0.7,0.4c-1,2.8-3.2,4.2-6.8,4.2c-2.2,0-4-0.6-5.3-1.7c-0.7-0.6-1.5-1.6-2.2-2.9
	c-1.5,1.3-2.7,2.2-3.4,2.8c-1.9,1.2-4.2,1.9-6.9,1.9c-2.8,0-5.2-0.7-7-2c-1.9-1.4-2.8-3.4-2.8-5.9c0-2.5,0.9-4.5,2.7-6.1
	c1.4-1.2,3.8-2.3,7-3.1c3.6-0.9,6.1-1.8,7.6-2.6c1.2-0.6,1.9-1.5,2.3-2.4c0.4-0.8,0.5-2,0.5-3.5c0-2.8-0.5-5-1.4-6.5
	c-1.2-1.8-2.9-2.7-5.2-2.7c-1.5,0-2.7,0.5-3.7,1.4c-0.5,0.5-1.3,1.8-2.3,4c-0.5,1.2-1.5,1.9-3,1.9c-1.1,0-1.9-0.4-2.5-1.2
	c-0.5-0.6-0.7-1.3-0.7-2c0-1.2,0.7-2.2,2-3c2.4-1.4,5.6-2.1,9.5-2.1c2.3,0,4.7,0.4,7.1,1.1c2.8,0.9,4.6,2.1,5.5,3.6
	c0.6,1.1,0.9,2.9,0.9,5.5v15.1c0,2.5,0.1,4.2,0.3,5.1c0.5,1.9,1.6,2.8,3.4,2.8c1.2,0,2.1-0.3,2.9-1.1
	C272.4,259.1,272.6,258.8,273,258.3 M259.4,242.2c-1.4,1.2-3,2.2-4.8,3.2c-2.2,1.2-3.6,2-4.2,2.5c-2.5,1.9-3.8,4.4-3.8,7.3
	c0,1.8,0.5,3.2,1.4,4.3c1,1.3,2.3,1.9,3.8,1.9c1.9,0,3.5-0.7,4.9-2.2c1.9-1.9,2.8-5.3,2.8-10.2V242.2z"/>
<rect x="234.5" y="205.1" class="st6" width="8.5" height="17.8"/>
<rect x="263.5" y="205.1" class="st6" width="8.5" height="17.8"/>
<polyline class="st6" points="253.1,222.1 252.4,222.1 252.4,218.7 248.6,219.1 249.3,217.7 245.1,214.7 246.2,214 245.1,211.1 
	247.4,211.7 248.3,210.5 251.2,213.4 249.6,207.8 251.5,208.9 253.1,205.9 254.8,208.9 256.6,207.8 255.1,213.4 258,210.5 
	258.8,211.7 261.1,211.1 260,214 261.2,214.7 257,217.7 257.7,219.1 253.9,218.7 253.9,222.1 253.1,222.1 "/>
<path d="M347.4,260c1.2,0.6,2.4,0.9,3.6,0.9c2.1,0,3-1.4,3-3.9v-12.4h3.1v12.7c0,4.2-2.5,6.4-6.1,6.4c-1.6,0-3.1-0.4-4.6-1.2
	L347.4,260"/>
<path d="M360.6,249.7h3v8.4c0,1.7,0.6,2.9,2.1,2.9c2.2,0,3.5-1.9,3.5-5v-6.3h3v13.6h-2.6l-0.3-1.8c-1,1.4-2.4,2.1-4.3,2.1
	c-2.7,0-4.5-2-4.5-5.2V249.7"/>
<path d="M375.6,250l2.6-0.3l0.3,1.8c1-1.4,2.5-2.1,4.3-2.1c2.7,0,4.5,2,4.5,5.2v8.8h-3V255c0-1.7-0.6-2.9-2.1-2.9
	c-2.2,0-3.5,1.9-3.5,5v6.3h-3V250"/>
<path d="M401.7,262.7c-1.5,0.7-3,1-4.7,1c-4.6,0-7.1-3.2-7.1-7.2c0-3.9,2.4-7.2,6.4-7.2c4.2,0,6.3,3.2,6.3,7.7H393
	c0.2,2.2,1.4,4,4.2,4c1.5,0,2.7-0.3,4-0.9L401.7,262.7 M399.6,255c-0.4-2.3-1.8-2.9-3.2-2.9c-1.4,0-2.8,0.8-3.3,2.9H399.6z"/>
<path d="M411.7,254.2l4.3-9.5h3.3l-2.9,5.9c0.4-0.2,0.8-0.2,1.3-0.2c3.7,0,6.5,3,6.5,6.7c0,3.7-2.6,6.7-6.5,6.7
	c-3.9,0-6.5-3.1-6.5-6.7C411.1,256,411.3,255.1,411.7,254.2 M417.7,261c2.2,0,3.5-1.9,3.5-4.1c0-2.1-1.2-3.9-3.5-3.9
	c-2.2,0-3.5,1.8-3.5,3.9C414.2,259.1,415.4,261,417.7,261z"/>
<rect x="427.2" y="255.1" width="8.7" height="2.6"/>
<polyline points="439.6,260.7 443.3,260.7 443.3,248 440.1,249.5 438.9,246.8 444,244.6 446.4,244.6 446.4,260.7 449.8,260.7 
	449.8,263.4 439.6,263.4 439.6,260.7 "/>
<polyline points="452.4,260.7 456.1,260.7 456.1,248 452.9,249.5 451.6,246.8 456.8,244.6 459.2,244.6 459.2,260.7 462.5,260.7 
	462.5,263.4 452.4,263.4 452.4,260.7 "/>
<polyline points="465.9,259.7 468.8,260.2 466.5,267.9 464.5,267.6 465.9,259.7 "/>
<path d="M477.8,261.1c6.1-5.5,8.2-8.1,8.2-10.9c0-1.7-1.2-3.2-3.1-3.2c-1.4,0-2.6,0.4-3.9,1.1l-1.1-2.3c1.7-0.9,3.3-1.4,5-1.4
	c3.4,0,6.2,1.9,6.2,5.7c0,3.8-3,7.2-6.8,10.7h6.9v2.7h-11.4V261.1"/>
<path d="M492.1,254c0-6.3,2.5-9.7,6.5-9.7c4.1,0,6.5,3.4,6.5,9.7c0,6.3-2.5,9.7-6.5,9.7C494.6,263.7,492.1,260.4,492.1,254
	 M502.1,254c0-5.1-1.3-7.1-3.5-7.1c-2.1,0-3.5,2-3.5,7.1c0,5.1,1.3,7,3.5,7C500.8,261,502.1,259.1,502.1,254z"/>
<path d="M507.6,261.1c6.1-5.5,8.2-8.1,8.2-10.9c0-1.7-1.2-3.2-3.1-3.2c-1.4,0-2.6,0.4-3.9,1.1l-1.1-2.3c1.7-0.9,3.3-1.4,5-1.4
	c3.4,0,6.2,1.9,6.2,5.7c0,3.8-3,7.2-6.8,10.7h6.9v2.7h-11.4V261.1"/>
<polyline points="522.7,260.7 526.4,260.7 526.4,248 523.2,249.5 522,246.8 527.1,244.6 529.5,244.6 529.5,260.7 532.8,260.7 
	532.8,263.4 522.7,263.4 522.7,260.7 "/>
<g>
	<path d="M72,303.2l-3.3-10.7h-0.1l-5.2,11.2h-0.1l-5.2-11.2h-0.1l-3.3,10.7h-3.2l5.9-19.7h0.1l5.9,12.7h0.1l5.9-12.7h0.1l5.8,19.7
		H72z"/>
	<path d="M83.5,300.5c0.6,0,1.2-0.1,1.7-0.4c0.5-0.2,1-0.6,1.3-0.9l2.3,2.2c-0.7,0.7-1.4,1.2-2.3,1.6c-0.9,0.4-1.8,0.6-2.8,0.6
		c-1,0-1.9-0.2-2.8-0.6s-1.6-0.9-2.3-1.5c-0.6-0.6-1.2-1.4-1.5-2.3s-0.6-1.8-0.6-2.8s0.2-1.9,0.6-2.8c0.4-0.9,0.9-1.6,1.5-2.3
		c0.6-0.6,1.4-1.2,2.2-1.5c0.9-0.4,1.8-0.6,2.7-0.6c1,0,1.9,0.2,2.7,0.6c0.8,0.4,1.6,0.9,2.2,1.5c0.6,0.6,1.1,1.4,1.5,2.3
		c0.4,0.9,0.6,1.8,0.6,2.8c0,0.2,0,0.3,0,0.4s0,0.2,0,0.2c0,0.1,0,0.1,0,0.2H79.7c0,0.4,0.1,0.8,0.3,1.2c0.2,0.4,0.5,0.7,0.8,1
		c0.3,0.3,0.8,0.6,1.2,0.8C82.5,300.4,83,300.5,83.5,300.5z M86.9,294.5L86.9,294.5c-0.3-0.7-0.8-1.3-1.4-1.7
		c-0.6-0.4-1.3-0.6-2-0.6c-0.8,0-1.5,0.2-2,0.6c-0.6,0.4-1.1,0.9-1.5,1.6l0,0.1H86.9z"/>
	<path d="M98.6,292.8v10.4h-3.2v-10.4h-3.3v-3.1h3.3v-6.1h3.2v6.1h3.3v3.1H98.6z"/>
	<path d="M113.7,293c-0.6-0.4-1.3-0.7-2-0.7c-0.5,0-1,0.1-1.4,0.3c-0.5,0.2-0.8,0.5-1.2,0.9c-0.3,0.4-0.6,0.8-0.8,1.3
		c-0.2,0.5-0.3,1-0.3,1.6v6.8h-3.2v-13.6h3.2v1.7l0.1,0c0.6-0.7,1.2-1.2,2-1.5c0.7-0.3,1.5-0.5,2.3-0.5c0.5,0,1.1,0.1,1.6,0.2
		c0.5,0.2,1,0.4,1.4,0.6L113.7,293z"/>
	<path d="M130.2,296.4c0,1-0.2,1.9-0.6,2.8s-0.9,1.6-1.5,2.3c-0.6,0.6-1.4,1.2-2.3,1.5s-1.8,0.6-2.8,0.6c-1,0-1.9-0.2-2.8-0.6
		s-1.6-0.9-2.3-1.5c-0.6-0.6-1.2-1.4-1.5-2.3s-0.6-1.8-0.6-2.8s0.2-1.9,0.6-2.8s0.9-1.6,1.5-2.3c0.6-0.6,1.4-1.2,2.3-1.5
		s1.8-0.6,2.8-0.6c1,0,1.9,0.2,2.8,0.6s1.6,0.9,2.3,1.5c0.6,0.6,1.2,1.4,1.5,2.3S130.2,295.4,130.2,296.4z M127,296.4
		c0-0.6-0.1-1.1-0.3-1.6c-0.2-0.5-0.5-0.9-0.8-1.3c-0.4-0.4-0.8-0.7-1.3-0.9c-0.5-0.2-1-0.3-1.5-0.3c-0.5,0-1.1,0.1-1.5,0.3
		c-0.5,0.2-0.9,0.5-1.3,0.9s-0.6,0.8-0.8,1.3s-0.3,1-0.3,1.6s0.1,1.1,0.3,1.6s0.5,0.9,0.8,1.3s0.8,0.7,1.3,0.9
		c0.5,0.2,1,0.3,1.5,0.3c0.5,0,1.1-0.1,1.5-0.3c0.5-0.2,0.9-0.5,1.3-0.9c0.4-0.4,0.6-0.8,0.8-1.3C126.9,297.5,127,297,127,296.4z"/>
	<path d="M149.4,287.1v16.1h-3.3v-16.1H140V284h15.5v3.1H149.4z"/>
	<path d="M168.2,296.4c0,1-0.2,1.9-0.6,2.8s-0.9,1.6-1.5,2.3c-0.6,0.6-1.4,1.2-2.3,1.5s-1.8,0.6-2.8,0.6c-1,0-1.9-0.2-2.8-0.6
		s-1.6-0.9-2.3-1.5c-0.6-0.6-1.2-1.4-1.5-2.3s-0.6-1.8-0.6-2.8s0.2-1.9,0.6-2.8s0.9-1.6,1.5-2.3c0.6-0.6,1.4-1.2,2.3-1.5
		s1.8-0.6,2.8-0.6c1,0,1.9,0.2,2.8,0.6s1.6,0.9,2.3,1.5c0.6,0.6,1.2,1.4,1.5,2.3S168.2,295.4,168.2,296.4z M165,296.4
		c0-0.6-0.1-1.1-0.3-1.6c-0.2-0.5-0.5-0.9-0.8-1.3c-0.4-0.4-0.8-0.7-1.3-0.9c-0.5-0.2-1-0.3-1.5-0.3c-0.5,0-1.1,0.1-1.5,0.3
		c-0.5,0.2-0.9,0.5-1.3,0.9s-0.6,0.8-0.8,1.3s-0.3,1-0.3,1.6s0.1,1.1,0.3,1.6s0.5,0.9,0.8,1.3s0.8,0.7,1.3,0.9
		c0.5,0.2,1,0.3,1.5,0.3c0.5,0,1.1-0.1,1.5-0.3c0.5-0.2,0.9-0.5,1.3-0.9c0.4-0.4,0.6-0.8,0.8-1.3C164.9,297.5,165,297,165,296.4z"/>
	<path d="M180.1,293c-0.6-0.4-1.3-0.7-2-0.7c-0.5,0-1,0.1-1.4,0.3c-0.5,0.2-0.8,0.5-1.2,0.9c-0.3,0.4-0.6,0.8-0.8,1.3
		c-0.2,0.5-0.3,1-0.3,1.6v6.8h-3.2v-13.6h3.2v1.7l0.1,0c0.6-0.7,1.2-1.2,2-1.5c0.7-0.3,1.5-0.5,2.3-0.5c0.5,0,1.1,0.1,1.6,0.2
		c0.5,0.2,1,0.4,1.4,0.6L180.1,293z"/>
	<path d="M196.6,296.4c0,1-0.2,1.9-0.6,2.8s-0.9,1.6-1.5,2.3c-0.6,0.6-1.4,1.2-2.3,1.5s-1.8,0.6-2.8,0.6c-1,0-1.9-0.2-2.8-0.6
		s-1.6-0.9-2.3-1.5c-0.6-0.6-1.2-1.4-1.5-2.3s-0.6-1.8-0.6-2.8s0.2-1.9,0.6-2.8s0.9-1.6,1.5-2.3c0.6-0.6,1.4-1.2,2.3-1.5
		s1.8-0.6,2.8-0.6c1,0,1.9,0.2,2.8,0.6s1.6,0.9,2.3,1.5c0.6,0.6,1.2,1.4,1.5,2.3S196.6,295.4,196.6,296.4z M193.3,296.4
		c0-0.6-0.1-1.1-0.3-1.6c-0.2-0.5-0.5-0.9-0.8-1.3c-0.4-0.4-0.8-0.7-1.3-0.9c-0.5-0.2-1-0.3-1.5-0.3c-0.5,0-1.1,0.1-1.5,0.3
		c-0.5,0.2-0.9,0.5-1.3,0.9s-0.6,0.8-0.8,1.3s-0.3,1-0.3,1.6s0.1,1.1,0.3,1.6s0.5,0.9,0.8,1.3s0.8,0.7,1.3,0.9
		c0.5,0.2,1,0.3,1.5,0.3c0.5,0,1.1-0.1,1.5-0.3c0.5-0.2,0.9-0.5,1.3-0.9c0.4-0.4,0.6-0.8,0.8-1.3C193.2,297.5,193.3,297,193.3,296.4
		z"/>
	<path d="M206.2,292.3c-0.5,0-0.9,0.1-1.3,0.3s-0.8,0.5-1.1,0.9c-0.3,0.4-0.6,0.8-0.8,1.3s-0.3,1-0.3,1.6v6.8h-3.2v-13.6h3.2v1.7
		l0.1,0c0.6-0.7,1.2-1.2,1.9-1.5c0.7-0.3,1.4-0.5,2.2-0.5c1,0,1.8,0.1,2.5,0.4s1.2,0.6,1.7,1c0.4,0.4,0.8,0.9,1,1.4
		c0.2,0.5,0.4,1,0.5,1.6c0.1,0.5,0.2,1,0.2,1.4c0,0.4,0,0.8,0,1.1v7h-3.2v-6.8c0-0.4,0-0.9-0.1-1.3c0-0.5-0.2-0.9-0.4-1.3
		c-0.2-0.4-0.6-0.7-1-1C207.7,292.4,207.1,292.3,206.2,292.3z"/>
	<path d="M222,292.8v10.4h-3.2v-10.4h-3.3v-3.1h3.3v-6.1h3.2v6.1h3.3v3.1H222z"/>
	<path d="M241.3,296.4c0,1-0.2,1.9-0.6,2.8s-0.9,1.6-1.5,2.3c-0.6,0.6-1.4,1.2-2.3,1.5s-1.8,0.6-2.8,0.6c-1,0-1.9-0.2-2.8-0.6
		s-1.6-0.9-2.3-1.5c-0.6-0.6-1.2-1.4-1.5-2.3s-0.6-1.8-0.6-2.8s0.2-1.9,0.6-2.8s0.9-1.6,1.5-2.3c0.6-0.6,1.4-1.2,2.3-1.5
		s1.8-0.6,2.8-0.6c1,0,1.9,0.2,2.8,0.6s1.6,0.9,2.3,1.5c0.6,0.6,1.2,1.4,1.5,2.3S241.3,295.4,241.3,296.4z M238,296.4
		c0-0.6-0.1-1.1-0.3-1.6c-0.2-0.5-0.5-0.9-0.8-1.3c-0.4-0.4-0.8-0.7-1.3-0.9c-0.5-0.2-1-0.3-1.5-0.3c-0.5,0-1.1,0.1-1.5,0.3
		c-0.5,0.2-0.9,0.5-1.3,0.9s-0.6,0.8-0.8,1.3s-0.3,1-0.3,1.6s0.1,1.1,0.3,1.6s0.5,0.9,0.8,1.3s0.8,0.7,1.3,0.9
		c0.5,0.2,1,0.3,1.5,0.3c0.5,0,1.1-0.1,1.5-0.3c0.5-0.2,0.9-0.5,1.3-0.9c0.4-0.4,0.6-0.8,0.8-1.3C237.9,297.5,238,297,238,296.4z"/>
	<path d="M265.9,302.8c-1.2,0.5-2.5,0.8-4,0.8c-1.4,0-2.7-0.3-3.9-0.8c-1.2-0.5-2.3-1.2-3.2-2.1c-0.9-0.9-1.6-2-2.2-3.2
		s-0.8-2.5-0.8-3.9c0-1.4,0.3-2.7,0.8-3.9c0.5-1.2,1.3-2.3,2.2-3.2c0.9-0.9,2-1.6,3.2-2.2c1.2-0.5,2.5-0.8,3.9-0.8
		c1.4,0,2.8,0.3,4,0.8c1.2,0.5,2.3,1.2,3.2,2.2l-2.3,2.3c-0.6-0.6-1.3-1.2-2.2-1.5s-1.7-0.6-2.7-0.6c-0.9,0-1.8,0.2-2.6,0.6
		s-1.5,0.9-2.1,1.5c-0.6,0.6-1.1,1.4-1.4,2.2c-0.4,0.9-0.5,1.8-0.5,2.7c0,0.9,0.2,1.8,0.5,2.7c0.4,0.8,0.8,1.6,1.4,2.2
		c0.6,0.6,1.3,1.1,2.1,1.5s1.7,0.6,2.6,0.6c1,0,1.9-0.2,2.7-0.6c0.9-0.4,1.6-0.9,2.2-1.5l2.3,2.3
		C268.2,301.5,267.1,302.3,265.9,302.8z"/>
	<path d="M285.3,296.4c0,1-0.2,1.9-0.6,2.8s-0.9,1.6-1.5,2.3c-0.6,0.6-1.4,1.2-2.3,1.5s-1.8,0.6-2.8,0.6c-1,0-1.9-0.2-2.8-0.6
		s-1.6-0.9-2.3-1.5c-0.6-0.6-1.2-1.4-1.5-2.3s-0.6-1.8-0.6-2.8s0.2-1.9,0.6-2.8s0.9-1.6,1.5-2.3c0.6-0.6,1.4-1.2,2.3-1.5
		s1.8-0.6,2.8-0.6c1,0,1.9,0.2,2.8,0.6s1.6,0.9,2.3,1.5c0.6,0.6,1.2,1.4,1.5,2.3S285.3,295.4,285.3,296.4z M282.1,296.4
		c0-0.6-0.1-1.1-0.3-1.6s-0.5-0.9-0.8-1.3s-0.8-0.7-1.3-0.9s-1-0.3-1.5-0.3s-1.1,0.1-1.5,0.3c-0.5,0.2-0.9,0.5-1.3,0.9
		c-0.4,0.4-0.6,0.8-0.8,1.3c-0.2,0.5-0.3,1-0.3,1.6s0.1,1.1,0.3,1.6c0.2,0.5,0.5,0.9,0.8,1.3c0.4,0.4,0.8,0.7,1.3,0.9
		c0.5,0.2,1,0.3,1.5,0.3s1.1-0.1,1.5-0.3s0.9-0.5,1.3-0.9s0.6-0.8,0.8-1.3S282.1,297,282.1,296.4z"/>
	<path d="M295,292.3c-0.5,0-0.9,0.1-1.3,0.3c-0.4,0.2-0.8,0.5-1.1,0.9c-0.3,0.4-0.6,0.8-0.8,1.3s-0.3,1-0.3,1.6v6.8h-3.2v-13.6h3.2
		v1.7l0.1,0c0.6-0.7,1.2-1.2,1.9-1.5c0.7-0.3,1.4-0.5,2.2-0.5c1,0,1.8,0.1,2.5,0.4s1.2,0.6,1.7,1c0.4,0.4,0.8,0.9,1,1.4
		c0.2,0.5,0.4,1,0.5,1.6c0.1,0.5,0.2,1,0.2,1.4c0,0.4,0,0.8,0,1.1v7h-3.2v-6.8c0-0.4,0-0.9-0.1-1.3c0-0.5-0.2-0.9-0.4-1.3
		c-0.2-0.4-0.6-0.7-1-1S295.8,292.3,295,292.3z"/>
	<path d="M310.2,296.8h0.1l3.4-7.1h3.5l-6.8,14h-0.1l-6.8-14h3.5L310.2,296.8z"/>
	<path d="M325.7,300.5c0.6,0,1.2-0.1,1.7-0.4c0.5-0.2,1-0.6,1.3-0.9l2.3,2.2c-0.7,0.7-1.4,1.2-2.3,1.6c-0.9,0.4-1.8,0.6-2.8,0.6
		c-1,0-1.9-0.2-2.8-0.6s-1.6-0.9-2.3-1.5c-0.6-0.6-1.2-1.4-1.5-2.3s-0.6-1.8-0.6-2.8s0.2-1.9,0.6-2.8s0.9-1.6,1.5-2.3
		c0.6-0.6,1.4-1.2,2.2-1.5s1.8-0.6,2.7-0.6c1,0,1.9,0.2,2.7,0.6s1.6,0.9,2.2,1.5c0.6,0.6,1.1,1.4,1.5,2.3s0.6,1.8,0.6,2.8
		c0,0.2,0,0.3,0,0.4c0,0.1,0,0.2,0,0.2c0,0.1,0,0.1,0,0.2h-10.6c0,0.4,0.1,0.8,0.3,1.2c0.2,0.4,0.5,0.7,0.8,1
		c0.3,0.3,0.8,0.6,1.2,0.8C324.7,300.4,325.2,300.5,325.7,300.5z M329.1,294.5L329.1,294.5c-0.3-0.7-0.8-1.3-1.4-1.7
		c-0.6-0.4-1.3-0.6-2-0.6c-0.8,0-1.5,0.2-2,0.6s-1.1,0.9-1.5,1.6l0,0.1H329.1z"/>
	<path d="M342.3,292.3c-0.5,0-0.9,0.1-1.3,0.3c-0.4,0.2-0.8,0.5-1.1,0.9c-0.3,0.4-0.6,0.8-0.8,1.3s-0.3,1-0.3,1.6v6.8h-3.2v-13.6
		h3.2v1.7l0.1,0c0.6-0.7,1.2-1.2,1.9-1.5c0.7-0.3,1.4-0.5,2.2-0.5c1,0,1.8,0.1,2.5,0.4s1.2,0.6,1.7,1c0.4,0.4,0.8,0.9,1,1.4
		c0.2,0.5,0.4,1,0.5,1.6c0.1,0.5,0.2,1,0.2,1.4c0,0.4,0,0.8,0,1.1v7h-3.2v-6.8c0-0.4,0-0.9-0.1-1.3c0-0.5-0.2-0.9-0.4-1.3
		c-0.2-0.4-0.6-0.7-1-1S343.1,292.3,342.3,292.3z"/>
	<path d="M358,292.8v10.4h-3.2v-10.4h-3.3v-3.1h3.3v-6.1h3.2v6.1h3.3v3.1H358z"/>
	<path d="M364,285.2c0-0.6,0.2-1,0.6-1.4c0.4-0.4,0.9-0.6,1.4-0.6c0.6,0,1,0.2,1.4,0.6c0.4,0.4,0.6,0.9,0.6,1.4c0,0.6-0.2,1-0.6,1.4
		c-0.4,0.4-0.9,0.6-1.4,0.6c-0.6,0-1-0.2-1.4-0.6C364.2,286.2,364,285.7,364,285.2z M364.4,303.2v-13.6h3.2v13.6H364.4z"/>
	<path d="M385.1,296.4c0,1-0.2,1.9-0.6,2.8s-0.9,1.6-1.5,2.3c-0.6,0.6-1.4,1.2-2.3,1.5s-1.8,0.6-2.8,0.6c-1,0-1.9-0.2-2.8-0.6
		s-1.6-0.9-2.3-1.5c-0.6-0.6-1.2-1.4-1.5-2.3s-0.6-1.8-0.6-2.8s0.2-1.9,0.6-2.8s0.9-1.6,1.5-2.3c0.6-0.6,1.4-1.2,2.3-1.5
		s1.8-0.6,2.8-0.6c1,0,1.9,0.2,2.8,0.6s1.6,0.9,2.3,1.5c0.6,0.6,1.2,1.4,1.5,2.3S385.1,295.4,385.1,296.4z M381.8,296.4
		c0-0.6-0.1-1.1-0.3-1.6s-0.5-0.9-0.8-1.3s-0.8-0.7-1.3-0.9s-1-0.3-1.5-0.3s-1.1,0.1-1.5,0.3c-0.5,0.2-0.9,0.5-1.3,0.9
		c-0.4,0.4-0.6,0.8-0.8,1.3c-0.2,0.5-0.3,1-0.3,1.6s0.1,1.1,0.3,1.6c0.2,0.5,0.5,0.9,0.8,1.3c0.4,0.4,0.8,0.7,1.3,0.9
		c0.5,0.2,1,0.3,1.5,0.3s1.1-0.1,1.5-0.3s0.9-0.5,1.3-0.9s0.6-0.8,0.8-1.3S381.8,297,381.8,296.4z"/>
	<path d="M394.7,292.3c-0.5,0-0.9,0.1-1.3,0.3c-0.4,0.2-0.8,0.5-1.1,0.9c-0.3,0.4-0.6,0.8-0.8,1.3s-0.3,1-0.3,1.6v6.8H388v-13.6h3.2
		v1.7l0.1,0c0.6-0.7,1.2-1.2,1.9-1.5c0.7-0.3,1.4-0.5,2.2-0.5c1,0,1.8,0.1,2.5,0.4s1.2,0.6,1.7,1c0.4,0.4,0.8,0.9,1,1.4
		c0.2,0.5,0.4,1,0.5,1.6c0.1,0.5,0.2,1,0.2,1.4c0,0.4,0,0.8,0,1.1v7h-3.2v-6.8c0-0.4,0-0.9-0.1-1.3c0-0.5-0.2-0.9-0.4-1.3
		c-0.2-0.4-0.6-0.7-1-1S395.6,292.3,394.7,292.3z"/>
	<path d="M427,302.8c-1.2,0.5-2.5,0.8-4,0.8c-1.4,0-2.7-0.3-3.9-0.8c-1.2-0.5-2.3-1.2-3.2-2.1c-0.9-0.9-1.6-2-2.2-3.2
		c-0.5-1.2-0.8-2.5-0.8-3.9c0-1.4,0.3-2.7,0.8-3.9c0.5-1.2,1.3-2.3,2.2-3.2c0.9-0.9,2-1.6,3.2-2.2c1.2-0.5,2.5-0.8,3.9-0.8
		c1.4,0,2.8,0.3,4,0.8c1.2,0.5,2.3,1.2,3.2,2.2l-2.3,2.3c-0.6-0.6-1.3-1.2-2.2-1.5s-1.7-0.6-2.7-0.6c-0.9,0-1.8,0.2-2.6,0.6
		c-0.8,0.4-1.5,0.9-2.1,1.5c-0.6,0.6-1.1,1.4-1.5,2.2c-0.4,0.9-0.5,1.8-0.5,2.7c0,0.9,0.2,1.8,0.5,2.7s0.8,1.6,1.5,2.2
		c0.6,0.6,1.3,1.1,2.1,1.5c0.8,0.4,1.7,0.6,2.6,0.6c1,0,1.9-0.2,2.7-0.6s1.6-0.9,2.2-1.5l2.3,2.3C429.3,301.5,428.2,302.3,427,302.8
		z"/>
	<path d="M439,300.5c0.6,0,1.2-0.1,1.7-0.4c0.5-0.2,1-0.6,1.3-0.9l2.3,2.2c-0.7,0.7-1.4,1.2-2.3,1.6c-0.9,0.4-1.8,0.6-2.8,0.6
		c-1,0-1.9-0.2-2.8-0.6s-1.6-0.9-2.3-1.5c-0.6-0.6-1.2-1.4-1.5-2.3s-0.6-1.8-0.6-2.8s0.2-1.9,0.6-2.8s0.9-1.6,1.5-2.3
		c0.6-0.6,1.4-1.2,2.2-1.5s1.8-0.6,2.7-0.6c1,0,1.9,0.2,2.7,0.6s1.6,0.9,2.2,1.5c0.6,0.6,1.1,1.4,1.5,2.3s0.6,1.8,0.6,2.8
		c0,0.2,0,0.3,0,0.4c0,0.1,0,0.2,0,0.2c0,0.1,0,0.1,0,0.2h-10.6c0,0.4,0.1,0.8,0.3,1.2c0.2,0.4,0.5,0.7,0.8,1
		c0.3,0.3,0.8,0.6,1.2,0.8C438,300.4,438.5,300.5,439,300.5z M442.4,294.5L442.4,294.5c-0.3-0.7-0.8-1.3-1.4-1.7
		c-0.6-0.4-1.3-0.6-2-0.6c-0.8,0-1.5,0.2-2,0.6s-1.1,0.9-1.5,1.6l0,0.1H442.4z"/>
	<path d="M455.6,292.3c-0.5,0-0.9,0.1-1.3,0.3c-0.4,0.2-0.8,0.5-1.1,0.9c-0.3,0.4-0.6,0.8-0.8,1.3s-0.3,1-0.3,1.6v6.8h-3.2v-13.6
		h3.2v1.7l0.1,0c0.6-0.7,1.2-1.2,1.9-1.5c0.7-0.3,1.4-0.5,2.2-0.5c1,0,1.8,0.1,2.5,0.4s1.2,0.6,1.7,1c0.4,0.4,0.8,0.9,1,1.4
		c0.2,0.5,0.4,1,0.5,1.6c0.1,0.5,0.2,1,0.2,1.4c0,0.4,0,0.8,0,1.1v7H459v-6.8c0-0.4,0-0.9-0.1-1.3c0-0.5-0.2-0.9-0.4-1.3
		c-0.2-0.4-0.6-0.7-1-1S456.4,292.3,455.6,292.3z"/>
	<path d="M471.4,292.8v10.4h-3.2v-10.4h-3.3v-3.1h3.3v-6.1h3.2v6.1h3.3v3.1H471.4z"/>
	<path d="M486.5,293c-0.6-0.4-1.3-0.7-2-0.7c-0.5,0-1,0.1-1.4,0.3c-0.5,0.2-0.8,0.5-1.2,0.9c-0.3,0.4-0.6,0.8-0.8,1.3
		s-0.3,1-0.3,1.6v6.8h-3.2v-13.6h3.2v1.7l0.1,0c0.6-0.7,1.2-1.2,2-1.5c0.7-0.3,1.5-0.5,2.3-0.5c0.5,0,1.1,0.1,1.6,0.2s1,0.4,1.4,0.6
		L486.5,293z"/>
	<path d="M496.4,300.5c0.6,0,1.2-0.1,1.7-0.4c0.5-0.2,1-0.6,1.3-0.9l2.3,2.2c-0.7,0.7-1.4,1.2-2.3,1.6c-0.9,0.4-1.8,0.6-2.8,0.6
		c-1,0-1.9-0.2-2.8-0.6s-1.6-0.9-2.3-1.5c-0.6-0.6-1.2-1.4-1.5-2.3s-0.6-1.8-0.6-2.8s0.2-1.9,0.6-2.8s0.9-1.6,1.5-2.3
		c0.6-0.6,1.4-1.2,2.2-1.5s1.8-0.6,2.7-0.6c1,0,1.9,0.2,2.7,0.6s1.6,0.9,2.2,1.5c0.6,0.6,1.1,1.4,1.5,2.3s0.6,1.8,0.6,2.8
		c0,0.2,0,0.3,0,0.4c0,0.1,0,0.2,0,0.2c0,0.1,0,0.1,0,0.2h-10.6c0,0.4,0.1,0.8,0.3,1.2c0.2,0.4,0.5,0.7,0.8,1
		c0.3,0.3,0.8,0.6,1.2,0.8C495.5,300.4,495.9,300.5,496.4,300.5z M499.8,294.5L499.8,294.5c-0.3-0.7-0.8-1.3-1.4-1.7
		c-0.6-0.4-1.3-0.6-2-0.6c-0.8,0-1.5,0.2-2,0.6s-1.1,0.9-1.5,1.6l0,0.1H499.8z"/>
</g>
</svg>
